<?xml version="1.0" encoding="utf-8"?>
<!-- Svg Vector Icons : http://www.onlinewebfonts.com/icon -->
<!DOCTYPE svg PUBLIC "-//W3C//DTD SVG 1.1//EN" "http://www.w3.org/Graphics/SVG/1.1/DTD/svg11.dtd">
<svg version="1.1" xmlns="http://www.w3.org/2000/svg" xmlns:xlink="http://www.w3.org/1999/xlink" x="0px" y="0px" viewBox="0 0 1000 1000" enable-background="new 0 0 1000 1000" xml:space="preserve">
<metadata> Svg Vector Icons : http://www.onlinewebfonts.com/icon </metadata>
<g><g transform="translate(0.000000,511.000000) scale(0.100000,-0.100000)"><path d="M119.1,4866.4c0-5.7,654.6-972.3,1456.6-2145.7c800.1-1175.2,1450.9-2139.9,1447-2145.7c-5.7-3.8-313.9-34.4-685.2-65.1L1660,452.6l-28.7,42.1c-15.3,23-229.7,390.5-478.5,819.2L701,2091.1l-223.9,5.7c-246.9,5.7-283.3-3.8-338.8-97.6C101.9,1939.8,100,1893.9,100,912c0-614.4,7.7-1068.1,19.1-1129.3c21.1-111,82.3-214.4,145.5-248.8c30.6-15.3,369.4-9.6,1374.3,21c733.1,24.9,1337.9,38.3,1343.7,32.5c5.7-3.8-637.4-957-1426-2115C766.1-3687.5,119.1-4638.8,119.1-4644.5c0-7.6,132.1-11.5,292.8-11.5h292.9l2053.8,2151.4L4812.4-351.3l116.7,9.6c65.1,5.7,442.2,19.1,836.5,30.6C8097-246,8996.6-213.5,9057.8-194.3c271.8,88.1,501.5,300.5,566.6,526.4c36.4,128.2,17.2,199.1-82.3,302.4c-147.4,151.2-375.2,273.7-838.4,447.9c-555.1,208.6-957,268-1427.9,214.4c-227.8-26.8-382.8-76.6-708.2-231.6c-356-170.4-514.9-202.9-1471.9-313.9l-411.5-47.9l-114.8,122.5c-63.2,68.9-958.9,1006.8-1990.6,2086.3L704.8,4876H412C251.2,4876,119.1,4872.2,119.1,4866.4z"/><path d="M6760.9,4110.4c-800.1-111-1590.6-503.4-2109.3-1048.9c-141.6-147.4-151.2-241.2-30.6-302.4c78.5-40.2,120.6-21.1,273.7,124.4c449.8,434.5,937.9,706.3,1517.9,851.8c294.8,74.6,470.9,95.7,807.7,95.7c335,0,507.2-21.1,807.7-95.7c583.8-145.5,1144.6-465.1,1556.1-886.2c80.4-82.3,105.3-97.6,164.6-97.6c82.3,0,151.2,67,151.2,147.4c0,57.4-139.7,208.6-365.6,398.1c-447.9,375.2-1004.9,643.1-1596.3,767.5c-195.2,42.1-290.9,49.8-641.2,55.5C7071,4123.8,6829.8,4120,6760.9,4110.4z"/><path d="M6894.9,3247.1c-300.5-36.4-666.1-147.4-936-283.3c-294.8-149.3-784.8-547.4-813.5-662.3c-13.4-55.5,28.7-151.2,74.7-170.4c84.2-30.6,126.3-9.6,298.6,151.2c480.4,449.8,1056.6,679.5,1703.5,679.5c641.2,0,1221.2-231.6,1699.7-679.5c187.6-176.1,227.8-191.4,315.8-122.5c38.3,30.6,49.8,55.5,49.8,112.9c0,67-13.4,86.1-170.4,235.4c-379,359.8-870.9,610.6-1399.2,712C7520.8,3256.7,7090.2,3272,6894.9,3247.1z"/><path d="M6850.9,2357.1c-206.7-44-434.5-135.9-606.8-241.2c-181.8-111-449.8-357.9-467-426.8c-13.4-55.5,28.7-153.1,74.7-170.4c82.3-30.6,128.2-9.6,264.1,118.7c166.5,157,281.4,237.4,447.9,313.9c371.3,168.4,780.9,187.6,1167.6,55.5c214.4-72.7,398.1-185.7,580-357.9c158.9-147.4,218.2-170.4,290.9-114.8c47.9,36.4,74.6,118.7,55.5,170.3c-26.8,70.8-292.8,308.2-461.3,411.5c-178,109.1-402,197.2-618.2,241.2C7396.4,2395.4,7027,2395.4,6850.9,2357.1z"/></g></g>
</svg>