<?xml version="1.0" encoding="utf-8"?>
<!-- Svg Vector Icons : http://www.onlinewebfonts.com/icon -->
<!DOCTYPE svg PUBLIC "-//W3C//DTD SVG 1.1//EN" "http://www.w3.org/Graphics/SVG/1.1/DTD/svg11.dtd">
<svg version="1.1" xmlns="http://www.w3.org/2000/svg" xmlns:xlink="http://www.w3.org/1999/xlink" x="0px" y="0px" viewBox="0 0 1000 1000" enable-background="new 0 0 1000 1000" xml:space="preserve">
<metadata> Svg Vector Icons : http://www.onlinewebfonts.com/icon </metadata>
<g><g transform="translate(0.000000,511.000000) scale(0.100000,-0.100000)"><path d="M1400.3,2238.3c-11.5-23-19.2-176.3-19.2-364.2v-325.8l-80.5-23c-189.7-49.8-256.8-157.2-239.6-379.5c38.3-473.4,320.1-751.3,590.3-580.8c149.5,95.8,266.4,375.7,266.4,640.2v130.3h766.7h766.7l55.6-113.1l57.5-113.1l-130.3-97.8C3110,770.2,2876.1,400.3,2791.8-9.9c-24.9-120.8-30.7-293.3-30.7-969.8c0-906.6-1.9-895.1,111.2-854.8l51.8,17.2l5.7,253l5.8,253l90.1,5.7l90.1,5.8v220.4V-859l-93.9,5.7l-93.9,5.8l11.5,368c11.5,415.9,40.3,563.5,155.3,799.3c92,184,174.4,293.2,335.4,446.6c191.7,180.2,203.2,184,249.2,92c21.1-40.3,51.8-78.6,69-86.3c42.2-15.3,2468.7-15.3,2510.8,0c17.3,7.7,47.9,46,69,86.3c46,92,57.5,88.2,249.2-92c161-151.4,239.6-256.8,331.6-442.7c118.8-233.8,147.6-385.2,159.1-803.1l11.5-368l-93.9-5.8l-93.9-5.7v-220.4v-220.4l92-5.8l90.1-5.7v-245.3c0-254.9,9.6-289.4,86.3-289.4c86.3,0,86.3,3.8,86.3,866.3c0,897-7.7,979.4-115,1255.4c-111.2,287.5-356.5,603.8-598,768.6l-92,63.3l57.5,113.1l57.5,115h764.8h762.8l11.5-176.3c21.1-385.2,197.4-647.8,431.3-647.8c207,0,391,283.7,419.8,644c17.2,212.8-51.8,320.1-239.6,369.9l-80.5,23v333.5c0,366.1-7.7,392.9-113.1,392.9c-92,0-97.7-26.8-99.6-391l-1.9-337.3l-1094.4,3.8l-1094.4,5.7l-17.2,67.1c-30.7,116.9-21.1,115-461.9,115l-404.4,1.9l-38.3,61.3c-21.1,32.6-72.8,80.5-115,103.5c-157.2,90.1-389.1,38.3-479.2-103.5l-38.3-61.3l-404.4-1.9c-440.8,0-431.2,1.9-461.9-115l-17.3-67.1l-1096.3-5.7l-1096.3-3.8v341.2c0,239.6-7.7,348.8-23,364.2C1530.6,2290.1,1423.3,2280.5,1400.3,2238.3z"/><path d="M244.6,2017.9C137.2,1989.2,87.4,1947,102.7,1901c17.3-40.2,187.8-118.8,320.1-145.7c111.2-23,728.3-15.3,791.6,11.5c24.9,9.6,32.6,36.4,32.6,103.5v90.1l-176.3,24.9c-97.7,13.4-220.4,32.6-274.1,42.2C649,2050.5,348.1,2044.8,244.6,2017.9z"/><path d="M1975.3,2033.3c-15.3-1.9-78.6-11.5-138-17.3l-111.2-11.5v-90.1v-90.1l274.1-44.1c483-76.7,866.3-44.1,866.3,72.8c0,109.3-279.8,193.6-636.3,189.8C2105.6,2040.9,1990.6,2037.1,1975.3,2033.3z"/><path d="M7399.5,2012.2c-172.5-47.9-258.8-101.6-258.8-161c0-115,385.2-147.6,868.3-70.9l272.2,44.1v88.2c0,86.3-1.9,90.1-61.3,101.6c-34.5,5.8-205.1,15.3-379.5,21.1C7575.8,2042.8,7503,2039,7399.5,2012.2z"/><path d="M9201.1,2027.5c-47.9-9.6-166.8-26.8-262.6-42.2l-178.3-24.9v-90.1c0-67.1,7.7-93.9,34.5-103.5c17.3-7.7,184-19.2,368-23c364.2-11.5,502.2,9.6,659.3,95.8c103.5,57.5,103.5,107.3,1.9,157.2c-61.3,28.8-122.7,38.3-306.7,40.2C9390.9,2039,9249,2035.2,9201.1,2027.5z"/><path d="M4639.5-130.7c-387.2-82.4-732.2-279.8-960.3-552c-111.2-130.3-224.2-327.7-266.4-460c-23-72.8-21.1-78.6,67.1-207c228.1-333.5,615.3-569.3,1104-668.9c279.8-57.5,726.4-47.9,996.7,24.9c414,109.2,751.3,322,948.7,599.9l86.3,120.7l-30.7,118.8c-109.2,427.4-546.3,828-1073.3,987.1c-147.6,44.1-214.7,51.7-460,57.5C4856-105.8,4723.8-111.5,4639.5-130.7z M4721.9-533.2c-178.2-90.1-316.3-277.9-346.9-473.4c-44.1-293.2,95.8-569.2,360.3-707.2c72.8-38.3,115-46,268.3-46s195.5,7.7,268.3,46c118.8,61.3,243.4,184,302.8,299c70.9,138,82.4,377.6,23,530.9c-51.8,138-182.1,285.6-312.4,350.7l-99.7,51.8l84.3-13.4c228.1-36.4,502.2-164.8,697.7-325.8c120.7-99.7,314.3-327.7,369.9-433.2c24.9-51.8,23-55.6-80.5-149.5c-494.5-452.4-1387.7-573.1-2077.7-281.8c-187.8,80.5-345,182.1-483,314.3c-111.2,105.4-111.2,105.4-78.6,155.3c182.1,281.8,555.8,557.7,906.6,668.9C4767.9-468,4863.7-462.2,4721.9-533.2z M5187.6-596.4c24.9-13.4,13.4-17.3-53.7-9.6c-69,7.7-111.2,0-193.6-38.3c-243.4-111.2-308.6-415.9-130.3-613.3c86.3-95.8,162.9-128.4,295.2-128.4c264.5,0,438.9,235.7,373.7,507.9c-13.4,53.7-11.5,53.7,17.3-9.6c47.9-101.6,55.6-302.8,15.3-423.6c-46-134.2-193.6-285.6-323.9-329.7c-254.9-86.3-519.4,13.4-657.4,249.2c-67.1,113.1-82.4,320.1-36.4,460c53.7,162.9,193.6,293.3,375.7,352.7C4930.8-558.1,5139.7-569.6,5187.6-596.4z M5272-753.6c55.6-30.7,80.5-128.4,47.9-191.7c-30.7-59.4-63.2-76.7-143.8-76.7c-63.2,0-134.2,76.7-134.2,143.8c0,69,70.9,143.8,136.1,143.8C5210.6-734.4,5252.8-742.1,5272-753.6z"/></g></g>
</svg>