<?xml version="1.0" encoding="utf-8"?>
<!-- Svg Vector Icons : http://www.onlinewebfonts.com/icon -->
<!DOCTYPE svg PUBLIC "-//W3C//DTD SVG 1.1//EN" "http://www.w3.org/Graphics/SVG/1.1/DTD/svg11.dtd">
<svg version="1.1" xmlns="http://www.w3.org/2000/svg" xmlns:xlink="http://www.w3.org/1999/xlink" x="0px" y="0px" viewBox="0 0 1000 1000" enable-background="new 0 0 1000 1000" xml:space="preserve">
<metadata> Svg Vector Icons : http://www.onlinewebfonts.com/icon </metadata>
<g><g transform="translate(0.000000,512.000000) scale(0.100000,-0.100000)"><path d="M1976.6,4997.9c-26.8-11.5-72.7-44-105.2-74.6c-40.2-38.3-97.6-63.1-189.4-84.2c-346.3-80.4-618-235.3-891.6-508.9c-271.7-271.7-407.5-505.1-497.4-860.9c-30.6-114.8-57.4-179.8-95.7-220c-128.2-135.8-130.1-308-3.8-451.5c38.3-45.9,68.9-114.8,95.7-223.8c88-344.4,233.4-596.9,501.3-864.8c267.9-267.9,510.8-407.5,860.9-499.4c112.9-28.7,181.8-59.3,227.7-97.6c143.5-126.3,300.4-126.3,445.8,1.9c45.9,38.3,112.9,68.9,221.9,95.7c265.9,68.9,522.3,195.2,719.4,355.9l101.4,82.3l361.6-361.6l359.7-359.7l-51.7-206.6c-118.6-472.6-118.6-786.3-1.9-1209.2l51.6-177.9l-363.5-363.5L3358-1394.2l-99.5,78.5c-208.5,164.5-484,298.4-738.5,357.8c-91.8,21.1-149.2,45.9-189.4,84.2c-135.8,130.1-323.3,130.1-459.2,0c-40.2-38.3-97.6-63.1-191.3-86.1c-346.3-78.4-671.5-267.9-929.8-541.4c-233.4-246.8-375-501.3-457.3-826.5c-30.6-114.8-57.4-179.9-95.7-220c-128.2-135.8-128.2-323.3,0-459.2c38.3-40.2,65-105.2,95.7-220c80.4-317.6,223.8-579.7,447.7-817c256.4-273.6,535.7-441.9,883.9-533.8c135.8-36.4,208.5-67,254.5-107.1c143.5-126.3,300.4-126.3,447.7,1.9c49.8,44,112.9,70.8,248.7,105.2c200.9,51.7,442,164.5,616.1,288.9c133.9,95.7,357.8,323.3,445.8,453.4c109.1,158.8,216.2,397.9,264,583.5c34.4,135.8,61.2,199,105.2,248.7c128.2,147.3,128.2,304.2,0,449.6c-38.3,44-67,107.1-86.1,195.2c-42.1,181.8-126.3,382.6-231.5,556.7c-49.7,80.4-86.1,149.2-82.3,153.1c21,19.1,690.7,453.4,713.6,461.1c40.2,15.3,36.4-59.3-7.6-156.9c-40.2-88-189.4-244.9-317.6-332.9c-74.6-51.7-84.2-65.1-67-95.7c28.7-53.6,49.8-61.2,449.6-162.6c200.9-51.7,371.2-97.6,378.8-105.2c13.4-11.5-5.7-120.5-36.3-200.9c-7.7-15.3,40.2-53.6,133.9-105.2l145.4-78.4L5145-2347c93.7,51.7,141.6,89.9,133.9,105.2c-38.3,101.4-51.7,187.5-30.6,200.9c13.4,7.7,162.6,49.7,332.9,93.8c447.7,114.8,443.9,112.9,478.3,164.5c30.6,45.9,28.7,47.8-53.6,105.2c-133.9,91.8-277.4,239.2-317.6,329.1c-45.9,101.4-49.7,177.9-9.6,160.7c23-7.6,692.6-441.9,713.6-461.1c3.8-3.8-32.5-72.7-82.3-153.1c-105.2-174.1-189.4-376.9-231.5-556.7c-21.1-91.9-45.9-149.2-84.2-189.4c-65-68.9-95.7-141.6-95.7-229.6c0-88,30.6-160.7,95.7-229.6c38.3-40.2,63.1-97.6,84.2-189.4c72.7-311.9,233.4-608.4,459.2-847.6c256.4-273.6,535.7-441.9,883.9-533.8c135.8-36.4,208.5-67,254.5-107.1c143.5-126.3,300.4-126.3,447.7,1.9c49.8,44,112.9,70.8,248.7,105.2c200.9,51.7,442,164.5,616.1,288.9c133.9,95.7,357.8,323.3,445.8,453.4c109.1,158.8,216.2,397.9,264,583.5c34.5,135.8,61.2,199,105.2,248.7c128.2,147.3,128.2,304.2,1.9,447.7c-40.2,45.9-70.8,118.6-107.1,254.5c-91.8,348.2-260.2,627.5-533.8,883.9c-239.2,225.8-535.7,386.5-847.5,459.2c-91.9,21.1-149.2,45.9-189.4,84.2c-135.8,130.1-323.3,130.1-459.2,0c-40.2-38.3-97.6-63.1-189.4-84.2c-260.2-61.2-526.1-189.4-740.4-359.7l-97.6-76.5l-365.4,363.5l-363.5,363.5l51.7,177.9c116.7,422.8,116.7,736.6-1.9,1209.2l-51.6,206.6l359.7,359.7l361.6,361.6l101.4-82.3c202.8-166.5,442-283.2,715.5-353.9c112.9-28.7,179.9-57.4,225.8-97.6c147.3-130.1,302.3-128.2,449.6,1.9c49.8,42.1,111,70.8,218.1,95.7c310,74.6,587.4,225.8,824.6,447.7c269.8,256.4,445.8,549.1,531.9,885.8c34.5,135.8,61.2,199,105.2,248.7c128.2,147.3,128.2,304.2,1.9,447.7c-40.2,45.9-70.8,118.6-107.1,254.5c-174.1,654.3-690.7,1163.2-1350.7,1331.6c-114.8,30.6-179.9,57.4-220,95.7c-135.8,128.2-323.3,128.2-459.2,0c-40.2-38.3-105.2-65-220-95.7c-325.2-82.3-579.7-223.8-826.5-457.3c-273.6-258.3-463-583.5-541.4-929.8c-23-93.7-47.8-151.1-86.1-191.3c-65-68.9-95.7-141.6-95.7-229.6c0-88,30.6-160.7,95.7-229.6c38.3-40.2,63.1-97.6,84.2-189.4c42.1-179.8,126.3-382.6,229.6-551l84.2-139.7l-355.8-233.4c-195.2-128.2-357.8-231.5-359.7-229.6c-1.9,1.9-55.5,82.3-120.5,179.8c-193.2,288.9-417.1,484-556.8,484c-139.7,0-363.5-195.2-556.7-484c-65.1-97.6-118.6-177.9-120.5-179.8c-1.9-1.9-164.6,101.4-361.6,229.6l-357.8,235.3l47.8,70.8c95.7,139.7,202.8,378.8,250.6,562.5c36.3,133.9,67,206.6,107.1,252.5c128.2,145.4,126.3,300.4-3.8,447.7c-42.1,49.7-70.8,111-95.7,218.1c-82.3,340.6-229.6,598.8-497.4,866.7c-273.6,273.6-543.3,426.6-891.6,508.9c-88,19.1-151.2,47.8-195.2,86.1c-36.4,32.5-86.1,67-112.9,76.5C2152.7,5024.7,2037.9,5022.7,1976.6,4997.9z M2236.8,4819.9c49.7-49.7,65-80.4,65-135.8c0-99.5-101.4-200.9-200.9-200.9s-200.9,101.4-200.9,200.9S2001.5,4885,2101,4885C2156.5,4885,2187.1,4869.7,2236.8,4819.9z M8033.9,4819.9c49.8-49.7,65.1-80.4,65.1-135.8c0-55.5-15.3-86.1-65.1-135.8c-49.7-49.7-80.3-65-135.8-65s-86.1,15.3-135.8,65c-49.8,49.7-65.1,80.4-65.1,135.8c0,55.5,15.3,86.1,65.1,135.8c49.7,49.7,80.3,65,135.8,65S7984.1,4869.7,8033.9,4819.9z M1913.5,4412.4c59.3-45.9,88-53.6,187.5-53.6s128.2,7.6,185.6,51.7c68.9,51.7,68.9,51.7,177.9,24.9c329.1-86.1,648.6-306.1,830.3-572.1c84.2-120.5,185.6-342.5,220-478.3c28.7-111,28.7-112.9-17.2-168.4c-86.1-103.3-88-275.5-1.9-388.4c47.8-63.1,47.8-65,21-174.1c-42.1-162.6-183.7-440-288.9-562.5c-195.2-229.6-491.7-419-761.5-487.9c-109.1-26.8-111-26.8-174.1,21c-112.9,86.1-285.1,84.2-388.4-1.9c-55.5-45.9-57.4-45.9-168.4-17.2c-135.8,34.4-357.8,135.8-478.3,220c-265.9,181.8-486,501.3-572.1,830.3c-26.8,109.1-26.8,109.1,24.9,177.9c44,57.4,51.7,86.1,51.7,185.6c0,99.5-7.6,128.2-51.7,185.6c-51.6,68.9-51.6,68.9-24.9,177.9c143.5,545.3,587.4,962.3,1153.7,1079.1C1842.7,4464.1,1877.1,4441.1,1913.5,4412.4z M7710.6,4412.4c59.3-45.9,88-53.6,187.5-53.6s128.2,7.6,189.4,55.5l72.7,55.5l177.9-59.3c489.8-160.7,847.6-539.5,975.7-1027.4c26.8-109.1,26.8-111-19.1-166.5c-86.1-103.3-88-275.5-1.9-388.4c47.8-63.1,47.8-65,21-174.1c-40.2-160.7-183.7-438.1-290.8-568.2c-49.7-59.3-139.7-149.2-197.1-197.1c-126.3-103.3-405.6-244.9-562.5-285.1c-109-26.8-111-26.8-174.1,21c-112.9,86.1-285.1,84.2-388.4-1.9c-55.5-45.9-57.4-45.9-166.5-19.1c-487.9,128.2-866.7,486-1027.4,975.7l-59.3,177.9l55.5,72.7c47.8,61.2,55.5,89.9,55.5,189.4c0,99.5-7.7,128.2-51.7,185.6c-51.7,67-51.7,70.8-24.9,172.2c143.5,554.8,581.6,966.2,1153.7,1084.8C7639.8,4464.1,7674.2,4441.1,7710.6,4412.4z M572.3,3155.4c89.9-89.9,89.9-181.8,0-271.7c-49.8-49.7-80.4-65-135.8-65c-99.5,0-200.9,101.4-200.9,200.9c0,99.5,101.4,200.9,200.9,200.9C492,3220.5,522.6,3205.2,572.3,3155.4z M3901.3,3155.4c49.7-49.7,65-80.4,65-135.8c0-99.5-101.4-200.9-200.9-200.9c-99.5,0-200.9,101.4-200.9,200.9c0,99.5,101.4,200.9,200.9,200.9C3821,3220.5,3851.6,3205.2,3901.3,3155.4z M6369.4,3155.4c49.8-49.7,65.1-80.4,65.1-135.8c0-55.5-15.3-86.1-65.1-135.8c-49.7-49.7-80.3-65-135.8-65c-55.5,0-86.1,15.3-135.8,65c-49.8,49.7-65.1,80.4-65.1,135.8c0,55.5,15.3,86.1,65.1,135.8c49.7,49.7,80.3,65,135.8,65C6289.1,3220.5,6319.6,3205.2,6369.4,3155.4z M9698.4,3155.4c49.8-49.7,65.1-80.4,65.1-135.8c0-55.5-15.3-86.1-65.1-135.8c-49.7-49.7-80.3-65-135.8-65s-86.1,15.3-135.8,65c-49.8,49.7-65.1,80.4-65.1,135.8c0,55.5,15.3,86.1,65.1,135.8c49.7,49.7,80.3,65,135.8,65S9648.7,3205.2,9698.4,3155.4z M5118.2,1919.5c49.7-32.5,135.8-116.7,193.2-187.5c107.2-132,243-334.8,243-361.6c0-7.6-51.7-47.8-114.8-89.9c-63.1-40.2-114.8-78.4-114.8-86.1c0-5.7,32.5-32.5,70.8-59.3c93.8-63.1,244.9-216.2,306.1-308c36.4-55.5,55.5-68.9,65-51.7c24.9,38.3,47.8,0,80.3-137.8c95.7-396,86.1-847.6-24.9-1136.5c-17.2-45.9-24.9-49.7-49.7-28.7c-24.9,19.1-32.5,19.1-45.9-3.8c-59.3-93.8-187.5-231.5-285.1-304.2c-63.2-47.8-112.9-91.8-111-99.5c1.9-7.6,45.9-44,97.6-78.4l95.7-65.1v-132c1.9-160.7,53.6-260.2,216.2-419c74.6-72.7,99.5-107.1,80.4-114.8c-15.3-5.7-204.7-55.5-424.7-112.9l-396-103.3l-396,103.3c-220,57.4-409.4,107.1-424.7,112.9c-19.1,7.7,5.7,44,82.3,118.6c164.5,164.5,212.4,254.5,214.3,415.2v132l95.7,65.1c51.6,34.4,95.7,70.8,97.6,78.4c1.9,7.7-47.8,51.7-111,99.5c-97.6,72.7-225.8,210.5-285.1,304.2c-13.4,22.9-21,22.9-45.9,3.8c-24.9-21-32.5-17.2-49.8,28.7c-89.9,233.4-114.8,767.2-49.7,1031.2c68.9,287,70.8,288.9,95.7,254.5c21-28.7,36.3-15.3,122.4,97.6c53.6,70.8,151.2,168.4,214.3,214.3c63.1,45.9,114.8,89.9,114.8,95.7c0,7.6-51.7,45.9-114.8,86.1c-63.1,42.1-114.8,82.3-114.8,89.9c0,26.8,133.9,227.7,239.2,359.7c103.3,126.3,256.4,246.8,315.7,246.8C5016.7,1976.9,5070.3,1950.1,5118.2,1919.5z M2236.8,1490.9c49.7-49.7,65-80.4,65-135.8c0-99.5-101.4-200.9-200.9-200.9s-200.9,101.4-200.9,200.9c0,99.5,101.4,200.9,200.9,200.9C2156.5,1556,2187.1,1540.7,2236.8,1490.9z M8033.9,1490.9c49.8-49.7,65.1-80.4,65.1-135.8c0-55.5-15.3-86.1-65.1-135.8c-49.7-49.7-80.3-65-135.8-65s-86.1,15.3-135.8,65c-49.8,49.7-65.1,80.4-65.1,135.8c0,55.5,15.3,86.1,65.1,135.8c49.7,49.7,80.3,65,135.8,65S7984.1,1540.7,8033.9,1490.9z M2236.8-977.1c49.7-49.7,65-80.3,65-135.8c0-99.5-101.4-200.9-200.9-200.9s-200.9,101.4-200.9,200.9c0,99.5,101.4,200.9,200.9,200.9C2156.5-912.1,2187.1-927.4,2236.8-977.1z M8033.9-977.1c49.8-49.7,65.1-80.3,65.1-135.8s-15.3-86.1-65.1-135.8c-49.7-49.8-80.3-65.1-135.8-65.1s-86.1,15.3-135.8,65.1c-49.8,49.7-65.1,80.3-65.1,135.8s15.3,86.1,65.1,135.8c49.7,49.8,80.3,65.1,135.8,65.1S7984.1-927.4,8033.9-977.1z M1913.5-1384.6c59.3-45.9,88-53.6,187.5-53.6s128.2,7.7,189.4,55.5l72.7,55.5l177.9-59.3c489.8-160.7,847.6-539.5,975.7-1027.4c26.8-109.1,26.8-111-19.1-166.5c-86.1-103.3-88-275.5-1.9-388.4c47.8-63.1,47.8-65.1,21-174.1c-40.2-160.7-183.7-438.1-290.8-568.2c-49.7-59.3-139.7-149.2-197.1-197.1c-126.3-103.3-405.6-244.9-562.5-285.1c-109.1-26.8-111-26.8-174.1,21c-112.9,86.1-285.1,84.2-388.4-1.9c-55.5-45.9-57.4-45.9-166.5-19.1c-487.9,128.2-866.7,486-1027.4,975.7l-59.3,177.9l55.5,72.7c47.8,61.2,55.5,89.9,55.5,189.4s-7.6,128.2-51.7,185.6c-51.6,67-51.6,70.8-24.9,172.2c143.5,554.8,581.6,966.2,1153.7,1084.8C1842.7-1333,1877.1-1355.9,1913.5-1384.6z M7710.6-1384.6c59.3-45.9,88-53.6,187.5-53.6s128.2,7.7,187.5,53.6c65.1,49.8,76.5,51.7,151.2,32.5c537.6-143.5,941.3-541.4,1077.1-1061.8c26.8-109.1,26.8-111-19.1-166.5c-86.1-103.3-88-275.5-1.9-388.4c47.8-63.1,47.8-65.1,21-174.1c-40.2-160.7-183.7-438.1-290.8-568.2c-49.7-59.3-139.7-149.2-197.1-197.1c-126.3-103.3-405.6-244.9-562.5-285.1c-109-26.8-111-26.8-174.1,21c-112.9,86.1-285.1,84.2-388.4-1.9c-55.5-45.9-57.4-45.9-166.5-19.1c-520.4,135.8-918.3,539.5-1061.8,1077.1c-19.1,74.6-17.2,86.1,32.5,151.1c45.9,59.3,53.6,88,53.6,187.5s-7.7,128.2-55.5,189.4l-55.5,72.7l61.2,187.5c147.3,443.9,476.4,778.7,920.2,931.7c99.5,34.4,189.4,63.1,197.1,63.1C7635.9-1333,7674.2-1355.9,7710.6-1384.6z M572.3-2641.6c49.7-49.7,65-80.3,65-135.8c0-99.5-101.4-200.9-200.9-200.9c-99.5,0-200.9,101.4-200.9,200.9s101.4,200.9,200.9,200.9C492-2576.6,522.6-2591.9,572.3-2641.6z M3901.3-2641.6c49.7-49.7,65-80.3,65-135.8c0-99.5-101.4-200.9-200.9-200.9c-99.5,0-200.9,101.4-200.9,200.9s101.4,200.9,200.9,200.9C3821-2576.6,3851.6-2591.9,3901.3-2641.6z M6369.4-2641.6c49.8-49.7,65.1-80.3,65.1-135.8c0-55.5-15.3-86.1-65.1-135.8c-49.7-49.8-80.3-65.1-135.8-65.1c-55.5,0-86.1,15.3-135.8,65.1c-49.8,49.7-65.1,80.3-65.1,135.8c0,99.5,101.4,200.9,200.9,200.9C6289.1-2576.6,6319.6-2591.9,6369.4-2641.6z M9698.4-2641.6c49.8-49.7,65.1-80.3,65.1-135.8c0-55.5-15.3-86.1-65.1-135.8c-49.7-49.8-80.3-65.1-135.8-65.1s-86.1,15.3-135.8,65.1c-49.8,49.7-65.1,80.3-65.1,135.8c0,99.5,101.4,200.9,200.9,200.9C9618-2576.6,9648.7-2591.9,9698.4-2641.6z M2236.8-4306.1c49.7-49.7,65-80.3,65-135.8c0-55.5-15.3-86.1-65-135.8c-89.9-89.9-181.8-89.9-271.7,0c-49.8,49.7-65.1,80.3-65.1,135.8c0,99.5,101.4,200.9,200.9,200.9C2156.5-4241.1,2187.1-4256.4,2236.8-4306.1z M8033.9-4306.1c49.8-49.7,65.1-80.3,65.1-135.8c0-99.5-101.4-200.9-200.9-200.9s-200.9,101.4-200.9,200.9c0,55.5,15.3,86.1,65.1,135.8C7852.1-4216.2,7944-4216.2,8033.9-4306.1z"/><path d="M968.4,3723.7c-193.2-38.3,9.6-365.4,323.3-522.3c84.2-42.1,168.4-76.5,187.5-76.5c76.5,0,95.7-21,95.7-107.1c0-273.6,250.6-524.2,526.1-524.2c101.4,0,277.4,63.1,325.2,114.8c32.5,36.3,36.4,36.3,130.1-49.7c214.3-193.2,530-285.1,711.7-210.5c78.5,32.5,82.3,63.1,26.8,176c-82.3,172.2-348.2,363.5-570.1,411.3c-97.6,21-97.6,21-97.6,93.8c0,265.9-256.4,516.6-526.1,516.6c-93.7,0-279.3-63.1-315.7-105.2c-19.1-24.9-38.3-15.3-120.5,59.3C1463.9,3679.7,1192.2,3767.7,968.4,3723.7z M2261.7,3245.4c76.5-57.4,120.5-155,111-252.5c-17.2-155-143.5-260.2-298.5-244.9c-273.6,28.7-340.6,388.4-95.7,516.6C2058.9,3306.6,2189,3298.9,2261.7,3245.4z"/><path d="M8529.4,4083.4c-177.9-84.2-367.3-298.5-432.4-484l-24.9-70.8l-116.7,11.5c-162.6,15.3-294.6-30.6-415.2-143.5c-160.7-149.2-206.6-357.8-128.2-570.1c38.3-103.3,40.2-109.1,7.7-128.2c-185.6-103.3-392.2-443.9-392.2-642.8c0-124.4,17.2-155,86.1-155c177.9,0,470.6,246.8,574,482.1l53.6,126.3l109.1-9.6c153.1-15.3,288.9,34.4,405.6,143.5c158.8,147.3,206.6,359.7,130.1,562.5l-38.3,101.4l51.7,36.4c99.5,68.9,244.9,235.3,298.5,338.6c65,130.1,99.5,292.7,82.3,386.5c-11.5,65.1-19.1,70.8-74.6,70.8C8671,4138.8,8592.5,4114,8529.4,4083.4z M8058.8,3245.4c76.5-57.4,120.5-155,111-252.5c-17.2-155-143.5-260.2-298.5-244.9c-273.6,28.7-340.5,388.4-95.7,516.6C7856,3306.6,7986.1,3298.9,8058.8,3245.4z"/><path d="M4913.4,901.7c-153.1-84.2-352-390.3-459.2-711.7c-82.3-243-51.7-449.6,84.2-572.1c103.3-93.8,200.9-118.6,461.1-118.6c273.6,0,365.4,26.8,470.7,132c151.1,151.1,158.8,382.6,21,700.2C5299.9,773.5,5078,993.5,4913.4,901.7z"/><path d="M1542.3-1537.7c-51.6-78.4-45.9-361.6,9.6-503.2c36.4-91.8,111-220,185.6-317.6c13.4-17.2,3.8-40.2-32.5-78.5c-177.9-191.3-170.3-495.5,19.1-698.3c89.9-97.6,241.1-168.4,353.9-168.4c63.2,0,63.2-1.9,84.2-124.4c44-252.5,216.2-514.7,390.3-595l78.4-34.5l36.4,42.1c70.8,89.9,70.8,331-1.9,526.1c-32.5,86.1-105.2,212.4-181.8,311.9c-11.5,17.2-3.8,38.3,24.9,70.8c59.3,63.1,118.6,225.8,118.6,329.1c0,128.2-63.1,275.5-158.8,369.2c-86.1,84.2-241.1,156.9-334.8,156.9c-49.7,0-53.6,5.7-72.7,132c-40.2,248.7-202.8,508.9-375,596.9C1594-1474.6,1582.5-1476.5,1542.3-1537.7z M2261.7-2551.7c76.5-57.4,120.5-155,111-252.5c-17.2-155-143.5-260.2-298.5-244.9c-273.6,28.7-340.6,388.4-95.7,516.6C2058.9-2490.5,2189-2498.1,2261.7-2551.7z"/><path d="M6920.4-1799.8c-21.1-57.4,5.7-199,57.4-308c68.9-137.8,223.8-306.1,348.2-375l97.6-55.5l-26.8-82.3c-36.3-99.5-24.9-285.1,23-376.9c118.6-237.2,403.7-361.6,637.1-279.3l78.5,28.7l55.5-101.4c122.5-216.2,397.9-403.7,596.9-403.7h105.2v105.2c0,199-187.5,474.5-407.5,596.9c-86.1,49.7-101.4,65-89.9,99.5c57.4,183.7,15.3,386.5-111,524.2c-114.8,122.5-206.6,164.5-367.3,164.5c-72.7,1.9-156.9-3.8-185.6-11.5c-45.9-13.4-55.5-5.7-107.1,86.1c-116.7,208.5-384.6,394.1-589.3,411.3C6951-1769.2,6930-1774.9,6920.4-1799.8z M8058.8-2551.7c76.5-57.4,120.5-155,111-252.5c-17.2-155-143.5-260.2-298.5-244.9c-273.6,28.7-340.5,388.4-95.7,516.6C7856-2490.5,7986.1-2498.1,8058.8-2551.7z"/></g></g>
</svg>